<svg xmlns="http://www.w3.org/2000/svg" xmlns:xlink="http://www.w3.org/1999/xlink" version="1.1" width="1034" height="524"><defs/><g transform=" scale(0.5) translate(-96,-76)"><rect x="420" y="560" width="240" height="440" fill="#efd3d2" stroke="#000000" stroke-width="2" pointer-events="none"/><rect x="258" y="560" width="178" height="28" fill-opacity="0" fill="#dae2f2" stroke="none" pointer-events="none"/><g fill="#000000" font-family="Arial,Helvetica" font-weight="bold" font-size="24px"><text x="440" y="550">Arduino Pro Mini</text></g><rect x="378" y="598" width="4" height="4" fill="#000000" stroke="none" pointer-events="none"/><path d="M 382 600 L 418 600" fill="#000000" stroke="#000000" stroke-width="4" stroke-linecap="square" stroke-miterlimit="10" pointer-events="none"/><g fill="#000000" font-family="Arial,Helvetica" font-weight="bold" font-size="24px"><text x="424" y="607.5">VCC</text></g><rect x="378" y="658" width="4" height="4" fill="#000000" stroke="none" pointer-events="none"/><path d="M 382 660 L 418 660" fill="#000000" stroke="#000000" stroke-width="4" stroke-linecap="square" stroke-miterlimit="10" pointer-events="none"/><g fill="#000000" font-family="Arial,Helvetica" font-weight="bold" font-size="24px"><text x="424" y="667.5">GND</text></g><rect x="698" y="598" width="4" height="4" fill="#000000" stroke="none" pointer-events="none"/><path d="M 662 600 L 698 600" fill="#000000" stroke="#000000" stroke-width="4" stroke-linecap="square" stroke-miterlimit="10" pointer-events="none"/><g fill="#000000" font-family="Arial,Helvetica" font-weight="bold" text-anchor="end" font-size="24px"><text x="655" y="607.5">Pin7</text></g><rect x="698" y="658" width="4" height="4" fill="#000000" stroke="none" pointer-events="none"/><path d="M 662 660 L 698 660" fill="#000000" stroke="#000000" stroke-width="4" stroke-linecap="square" stroke-miterlimit="10" pointer-events="none"/><g fill="#000000" font-family="Arial,Helvetica" font-weight="bold" text-anchor="end" font-size="24px"><text x="655" y="667.5">Pin9</text></g><rect x="698" y="718" width="4" height="4" fill="#000000" stroke="none" pointer-events="none"/><path d="M 662 720 L 698 720" fill="#000000" stroke="#000000" stroke-width="4" stroke-linecap="square" stroke-miterlimit="10" pointer-events="none"/><g fill="#000000" font-family="Arial,Helvetica" font-weight="bold" text-anchor="end" font-size="24px"><text x="655" y="727.5">Pin10</text></g><rect x="698" y="778" width="4" height="4" fill="#000000" stroke="none" pointer-events="none"/><path d="M 662 780 L 698 780" fill="#000000" stroke="#000000" stroke-width="4" stroke-linecap="square" stroke-miterlimit="10" pointer-events="none"/><g fill="#000000" font-family="Arial,Helvetica" font-weight="bold" text-anchor="end" font-size="24px"><text x="655" y="787.5">Pin11</text></g><rect x="698" y="838" width="4" height="4" fill="#000000" stroke="none" pointer-events="none"/><path d="M 662 840 L 698 840" fill="#000000" stroke="#000000" stroke-width="4" stroke-linecap="square" stroke-miterlimit="10" pointer-events="none"/><g fill="#000000" font-family="Arial,Helvetica" font-weight="bold" text-anchor="end" font-size="24px"><text x="655" y="847.5">Pin12</text></g><rect x="698" y="898" width="4" height="4" fill="#000000" stroke="none" pointer-events="none"/><path d="M 662 900 L 698 900" fill="#000000" stroke="#000000" stroke-width="4" stroke-linecap="square" stroke-miterlimit="10" pointer-events="none"/><g fill="#000000" font-family="Arial,Helvetica" font-weight="bold" text-anchor="end" font-size="24px"><text x="655" y="907.5">Pin13</text></g><rect x="698" y="958" width="4" height="4" fill="#000000" stroke="none" pointer-events="none"/><path d="M 662 960 L 698 960" fill="#000000" stroke="#000000" stroke-width="4" stroke-linecap="square" stroke-miterlimit="10" pointer-events="none"/><g fill="#000000" font-family="Arial,Helvetica" font-weight="bold" text-anchor="end" font-size="24px"><text x="655" y="967.5">Pin8</text></g><rect x="1060" y="560" width="240" height="380" fill="#efd3d2" stroke="#000000" stroke-width="2" pointer-events="none"/><rect x="1060" y="534" width="80" height="26" fill-opacity="0" fill="#dae2f2" stroke="none" pointer-events="none"/><g fill="#000000" font-family="Arial,Helvetica" font-weight="bold" font-size="24px"><text x="1144" y="555">nrf24l01</text></g><rect x="1018" y="658" width="4" height="4" fill="#000000" stroke="none" pointer-events="none"/><path d="M 1022 660 L 1058 660" fill="#000000" stroke="#000000" stroke-width="4" stroke-linecap="square" stroke-miterlimit="10" pointer-events="none"/><g fill="#000000" font-family="Arial,Helvetica" font-weight="bold" font-size="24px"><text x="1064" y="667.5">CE</text></g><rect x="1018" y="718" width="4" height="4" fill="#000000" stroke="none" pointer-events="none"/><path d="M 1022 720 L 1058 720" fill="#000000" stroke="#000000" stroke-width="4" stroke-linecap="square" stroke-miterlimit="10" pointer-events="none"/><g fill="#000000" font-family="Arial,Helvetica" font-weight="bold" font-size="24px"><text x="1064" y="727.5">CSN</text></g><rect x="1018" y="778" width="4" height="4" fill="#000000" stroke="none" pointer-events="none"/><path d="M 1022 780 L 1058 780" fill="#000000" stroke="#000000" stroke-width="4" stroke-linecap="square" stroke-miterlimit="10" pointer-events="none"/><g fill="#000000" font-family="Arial,Helvetica" font-weight="bold" font-size="24px"><text x="1064" y="787.5">MOSI</text></g><rect x="1018" y="838" width="4" height="4" fill="#000000" stroke="none" pointer-events="none"/><path d="M 1022 840 L 1058 840" fill="#000000" stroke="#000000" stroke-width="4" stroke-linecap="square" stroke-miterlimit="10" pointer-events="none"/><g fill="#000000" font-family="Arial,Helvetica" font-weight="bold" font-size="24px"><text x="1064" y="847.5">MISO</text></g><rect x="1018" y="898" width="4" height="4" fill="#000000" stroke="none" pointer-events="none"/><path d="M 1022 900 L 1058 900" fill="#000000" stroke="#000000" stroke-width="4" stroke-linecap="square" stroke-miterlimit="10" pointer-events="none"/><g fill="#000000" font-family="Arial,Helvetica" font-weight="bold" font-size="24px"><text x="1064" y="907.5">SCK</text></g><rect x="1018" y="598" width="4" height="4" fill="#000000" stroke="none" pointer-events="none"/><path d="M 1022 600 L 1058 600" fill="#000000" stroke="#000000" stroke-width="4" stroke-linecap="square" stroke-miterlimit="10" pointer-events="none"/><g fill="#000000" font-family="Arial,Helvetica" font-weight="bold" font-size="24px"><text x="1064" y="607.5">IRQ</text></g><rect x="1338" y="598" width="4" height="4" fill="#000000" stroke="none" pointer-events="none"/><path d="M 1302 600 L 1338 600" fill="#000000" stroke="#000000" stroke-width="4" stroke-linecap="square" stroke-miterlimit="10" pointer-events="none"/><g fill="#000000" font-family="Arial,Helvetica" font-weight="bold" text-anchor="end" font-size="24px"><text x="1295" y="607.5">GND</text></g><rect x="1338" y="658" width="4" height="4" fill="#000000" stroke="none" pointer-events="none"/><path d="M 1302 660 L 1338 660" fill="#000000" stroke="#000000" stroke-width="4" stroke-linecap="square" stroke-miterlimit="10" pointer-events="none"/><g fill="#000000" font-family="Arial,Helvetica" font-weight="bold" text-anchor="end" font-size="24px"><text x="1295" y="667.5">VCC</text></g><rect x="178" y="158" width="4" height="4" fill="#000000" stroke="none" pointer-events="none"/><rect x="298" y="158" width="4" height="4" fill="#000000" stroke="none" pointer-events="none"/><ellipse cx="240" cy="160" rx="37.99969258" ry="37.99969258" fill="#ffffff" stroke="#000000" stroke-width="4" pointer-events="none"/><path d="M 182 160 L 200 160" fill="none" stroke="#000000" stroke-width="4" stroke-linecap="square" stroke-miterlimit="10" pointer-events="none"/><path d="M 280 160 L 298 160" fill="none" stroke="#000000" stroke-width="4" stroke-linecap="square" stroke-miterlimit="10" pointer-events="none"/><path d="M 210.86 160 C 240 89.84 240.11 229.49 268.62 160.24" fill="none" stroke="#000000" stroke-width="4" stroke-linejoin="round" stroke-linecap="round" stroke-miterlimit="10" pointer-events="none"/><path d="M 186.2 147.4 L 199.19 147.4" fill="none" stroke="#000000" stroke-width="2.58" stroke-linecap="round" stroke-miterlimit="10" pointer-events="none"/><path d="M 192.53 140.86 L 192.53 154.47" fill="none" stroke="#000000" stroke-width="2.78" stroke-linecap="round" stroke-miterlimit="10" pointer-events="none"/><rect x="154" y="120" width="26" height="26" fill-opacity="0" fill="#dae2f2" stroke="none" pointer-events="none"/><g fill="#000000" font-family="Arial,Helvetica" font-weight="bold" text-anchor="middle" font-size="24px"><text x="167" y="141">V1</text></g><rect x="132" y="146" width="52" height="28" fill-opacity="0" fill="#dae2f2" stroke="none" pointer-events="none"/><g fill="#000000" font-family="Arial,Helvetica" font-weight="bold" text-anchor="middle" font-size="24px"><text x="158" y="200">120v</text></g><rect x="460" y="220" width="200" height="140" fill="#efd3d2" stroke="#000000" stroke-width="2" pointer-events="none"/><rect x="418" y="318" width="4" height="4" fill="#000000" stroke="none" pointer-events="none"/><path d="M 422 320 L 458 320" fill="#000000" stroke="#000000" stroke-width="4" stroke-linecap="square" stroke-miterlimit="10" pointer-events="none"/><g fill="#000000" font-family="Arial,Helvetica" font-weight="bold" font-size="24px"><text x="464" y="327.5">Hot</text></g><rect x="698" y="318" width="4" height="4" fill="#000000" stroke="none" pointer-events="none"/><path d="M 662 320 L 698 320" fill="#000000" stroke="#000000" stroke-width="4" stroke-linecap="square" stroke-miterlimit="10" pointer-events="none"/><g fill="#000000" font-family="Arial,Helvetica" font-weight="bold" text-anchor="end" font-size="24px"><text x="655" y="327.5">5VDC</text></g><rect x="290" y="220" width="186" height="28" fill-opacity="0" fill="#dae2f2" stroke="none" pointer-events="none"/><g fill="#000000" font-family="Arial,Helvetica" font-weight="bold" font-size="24px"><text x="480" y="210">120VAC to 5VDC</text></g><rect x="418" y="258" width="4" height="4" fill="#000000" stroke="none" pointer-events="none"/><path d="M 422 260 L 458 260" fill="#000000" stroke="#000000" stroke-width="4" stroke-linecap="square" stroke-miterlimit="10" pointer-events="none"/><g fill="#000000" font-family="Arial,Helvetica" font-weight="bold" font-size="24px"><text x="464" y="267.5">Neutral</text></g><rect x="698" y="258" width="4" height="4" fill="#000000" stroke="none" pointer-events="none"/><path d="M 662 260 L 698 260" fill="#000000" stroke="#000000" stroke-width="4" stroke-linecap="square" stroke-miterlimit="10" pointer-events="none"/><g fill="#000000" font-family="Arial,Helvetica" font-weight="bold" text-anchor="end" font-size="24px"><text x="655" y="267.5">GND</text></g><path d="M 300 160 L 420 160 L 420 260" fill="none" stroke="#000000" stroke-width="4" stroke-miterlimit="10" pointer-events="none"/><path d="M 700 320 L 780 320 L 780 400 L 360 400 L 360 600 L 380 600" fill="none" stroke="#000000" stroke-width="4" stroke-miterlimit="10" pointer-events="none"/><path d="M 700 260 L 840 260 L 840 460 L 300 460 L 300 660 L 380 660" fill="none" stroke="#000000" stroke-width="4" stroke-miterlimit="10" pointer-events="none"/><rect x="1060" y="360" width="220" height="80" fill="#efd3d2" stroke="#000000" stroke-width="2" pointer-events="none"/><rect x="1060" y="334" width="94" height="26" fill-opacity="0" fill="#dae2f2" stroke="none" pointer-events="none"/><g fill="#000000" font-family="Arial,Helvetica" font-weight="bold" text-anchor="middle" font-size="24px"><text x="1107" y="355">AMS1117</text></g><rect x="1098" y="478" width="4" height="4" fill="#000000" stroke="none" pointer-events="none"/><path d="M 1100 442 L 1100 478" fill="#000000" stroke="#000000" stroke-width="4" stroke-linecap="square" stroke-miterlimit="10" pointer-events="none"/><g fill="#000000" font-family="Arial,Helvetica" font-weight="bold" text-anchor="middle" font-size="24px"><text x="1099.5" y="429">5V</text></g><rect x="1158" y="478" width="4" height="4" fill="#000000" stroke="none" pointer-events="none"/><path d="M 1160 442 L 1160 478" fill="#000000" stroke="#000000" stroke-width="4" stroke-linecap="square" stroke-miterlimit="10" pointer-events="none"/><g fill="#000000" font-family="Arial,Helvetica" font-weight="bold" text-anchor="middle" font-size="24px"><text x="1159.5" y="429">GND</text></g><rect x="1218" y="478" width="4" height="4" fill="#000000" stroke="none" pointer-events="none"/><path d="M 1220 442 L 1220 478" fill="#000000" stroke="#000000" stroke-width="4" stroke-linecap="square" stroke-miterlimit="10" pointer-events="none"/><g fill="#000000" font-family="Arial,Helvetica" font-weight="bold" text-anchor="middle" font-size="24px"><text x="1219.5" y="429">3.3V</text></g><rect x="1758" y="638" width="4" height="4" fill="#000000" stroke="none" pointer-events="none"/><rect x="1878" y="618" width="4" height="4" fill="#000000" stroke="none" pointer-events="none"/><rect x="1878" y="658" width="4" height="4" fill="#000000" stroke="none" pointer-events="none"/><rect x="1758" y="758" width="4" height="4" fill="#000000" stroke="none" pointer-events="none"/><rect x="1758" y="698" width="4" height="4" fill="#000000" stroke="none" pointer-events="none"/><path d="M 1830.2 631.55 C 1830.49 631.36 1834.26 628.94 1838.58 626.17 C 1842.89 623.41 1846.42 621.12 1846.41 621.09 C 1846.4 621.06 1842.2 621.14 1837.07 621.26 C 1831.95 621.39 1827.47 621.49 1827.12 621.5 L 1826.48 621.52 L 1828.07 626.7 L 1829.66 631.89 L 1830.2 631.55 Z" fill="#000000" stroke="#000000" stroke-width="1.8" stroke-linejoin="round" stroke-miterlimit="10" pointer-events="none"/><ellipse cx="1785" cy="640" rx="4" ry="4" fill="none" stroke="#000000" stroke-width="4" pointer-events="none"/><path d="M 1762 640 L 1779 640" fill="none" stroke="#000000" stroke-width="4" stroke-linecap="square" stroke-miterlimit="10" pointer-events="none"/><ellipse cx="1851" cy="620" rx="4" ry="4" fill="none" stroke="#000000" stroke-width="4" pointer-events="none"/><path d="M 1857 620 L 1878 620" fill="none" stroke="#000000" stroke-width="4" stroke-linecap="square" stroke-miterlimit="10" pointer-events="none"/><ellipse cx="1851" cy="660" rx="4" ry="4" fill="none" stroke="#000000" stroke-width="4" pointer-events="none"/><path d="M 1857 660 L 1878 660" fill="none" stroke="#000000" stroke-width="4" stroke-linecap="square" stroke-miterlimit="10" pointer-events="none"/><path d="M 1817.98 634.13 L 1817.98 638.13" fill="none" stroke="#000000" stroke-width="2" stroke-linecap="square" stroke-miterlimit="10" pointer-events="none"/><path d="M 1817.98 642.13 L 1817.98 646.13" fill="none" stroke="#000000" stroke-width="2" stroke-linecap="square" stroke-miterlimit="10" pointer-events="none"/><path d="M 1817.98 650.13 L 1817.98 654.13" fill="none" stroke="#000000" stroke-width="2" stroke-linecap="square" stroke-miterlimit="10" pointer-events="none"/><path d="M 1817.98 658.13 L 1817.98 662.13" fill="none" stroke="#000000" stroke-width="2" stroke-linecap="square" stroke-miterlimit="10" pointer-events="none"/><path d="M 1818 666.38 L 1818 670.38" fill="none" stroke="#000000" stroke-width="2" stroke-linecap="square" stroke-miterlimit="10" pointer-events="none"/><path d="M 1818 674.38 L 1818 678.38" fill="none" stroke="#000000" stroke-width="2" stroke-linecap="square" stroke-miterlimit="10" pointer-events="none"/><path d="M 1830 700 C 1832.2 699.99 1833.99 702.67 1834 705.98 C 1834.01 709.3 1832.23 711.99 1830.02 712 C 1830.02 712 1830.01 712 1830.01 712" fill="none" stroke="#000000" stroke-width="4.76" stroke-linejoin="round" stroke-linecap="round" stroke-miterlimit="10" pointer-events="none"/><path d="M 1830 724 C 1832.2 723.99 1833.99 726.67 1834 729.98 C 1834.01 733.3 1832.23 735.99 1830.02 736 C 1830.02 736 1830.01 736 1830.01 736" fill="none" stroke="#000000" stroke-width="4.76" stroke-linejoin="round" stroke-linecap="round" stroke-miterlimit="10" pointer-events="none"/><path d="M 1830 748 C 1832.2 747.99 1833.99 750.67 1834 753.98 C 1834.01 757.3 1832.23 759.99 1830.02 760 C 1830.02 760 1830.01 760 1830.01 760" fill="none" stroke="#000000" stroke-width="4.76" stroke-linejoin="round" stroke-linecap="round" stroke-miterlimit="10" pointer-events="none"/><path d="M 1804 736 C 1801.8 735.99 1800.01 738.67 1800 741.98 C 1799.99 745.3 1801.77 747.99 1803.98 748 C 1803.98 748 1803.99 748 1803.99 748" fill="none" stroke="#000000" stroke-width="4.76" stroke-linejoin="round" stroke-linecap="round" stroke-miterlimit="10" pointer-events="none"/><path d="M 1828 690 L 1828 768 L 1806 768 L 1806 690 Z" fill="#ffffff" stroke="#000000" stroke-width="4" stroke-linejoin="round" stroke-linecap="round" stroke-miterlimit="10" pointer-events="none"/><path d="M 1804 712 C 1801.8 711.99 1800.01 714.67 1800 717.98 C 1799.99 721.3 1801.77 723.99 1803.98 724 C 1803.98 724 1803.99 724 1803.99 724" fill="none" stroke="#000000" stroke-width="4.76" stroke-linejoin="round" stroke-linecap="round" stroke-miterlimit="10" pointer-events="none"/><path d="M 1804 712 L 1830 712" fill="none" stroke="#000000" stroke-width="4.38" stroke-linejoin="round" stroke-linecap="round" stroke-miterlimit="10" pointer-events="none"/><path d="M 1804 736 L 1830 736" fill="none" stroke="#000000" stroke-width="4.38" stroke-linejoin="round" stroke-linecap="round" stroke-miterlimit="10" pointer-events="none"/><path d="M 1804 760 L 1830 760" fill="none" stroke="#000000" stroke-width="4.38" stroke-linejoin="round" stroke-linecap="round" stroke-miterlimit="10" pointer-events="none"/><path d="M 1762 760 L 1802 760" fill="none" stroke="#000000" stroke-width="4" stroke-linecap="square" stroke-miterlimit="10" pointer-events="none"/><path d="M 1762 700 L 1802 700" fill="none" stroke="#000000" stroke-width="4" stroke-linecap="square" stroke-miterlimit="10" pointer-events="none"/><g fill="#000000" font-family="Arial,Helvetica" text-anchor="middle" font-size="24px"><text x="1770" y="692.47">+</text></g><g fill="#000000" font-family="Arial,Helvetica" text-anchor="middle" font-size="28px"><text x="1769.06" y="749.96">-</text></g><path d="M 1788.55 638.51 L 1832.3 625.3" fill="none" stroke="#000000" stroke-width="4" stroke-linecap="square" stroke-miterlimit="10" pointer-events="none"/><rect x="1616" y="600" width="158" height="28" fill-opacity="0" fill="#dae2f2" stroke="none" pointer-events="none"/><g fill="#000000" font-family="Arial,Helvetica" font-weight="bold" font-size="24px"><text x="1778" y="590">hk3ff-dc5v-shg</text></g><path d="M 1340 600 L 1360 600 L 1360 260 L 844 260" fill="none" stroke="#000000" stroke-width="4" stroke-miterlimit="10" pointer-events="none"/><ellipse cx="840" cy="260" rx="4" ry="4" fill="#000000" stroke="#000000" stroke-width="4" pointer-events="none"/><rect x="2000" y="520" width="160" height="140" fill="#efd3d2" stroke="#000000" stroke-width="2" pointer-events="none"/><rect x="2000" y="494" width="154" height="26" fill-opacity="0" fill="#dae2f2" stroke="none" pointer-events="none"/><g fill="#000000" font-family="Arial,Helvetica" font-weight="bold" text-anchor="middle" font-size="24px"><text x="2077" y="515">Electrical Outlet</text></g><rect x="1958" y="618" width="4" height="4" fill="#000000" stroke="none" pointer-events="none"/><path d="M 1962 620 L 1998 620" fill="#000000" stroke="#000000" stroke-width="4" stroke-linecap="square" stroke-miterlimit="10" pointer-events="none"/><g fill="#000000" font-family="Arial,Helvetica" font-weight="bold" font-size="24px"><text x="2004" y="627.5">Hot</text></g><rect x="1958" y="558" width="4" height="4" fill="#000000" stroke="none" pointer-events="none"/><path d="M 1962 560 L 1998 560" fill="#000000" stroke="#000000" stroke-width="4" stroke-linecap="square" stroke-miterlimit="10" pointer-events="none"/><g fill="#000000" font-family="Arial,Helvetica" font-weight="bold" font-size="24px"><text x="2004" y="567.5">Neutral</text></g><path d="M 1880 620 L 1960 620" fill="none" stroke="#000000" stroke-width="4" stroke-miterlimit="10" pointer-events="none"/><path d="M 1960 560 L 1900 560 L 1900 160 L 424 160" fill="none" stroke="#000000" stroke-width="4" stroke-miterlimit="10" pointer-events="none"/><ellipse cx="420" cy="160" rx="4" ry="4" fill="#000000" stroke="#000000" stroke-width="4" pointer-events="none"/><rect x="1578" y="718" width="4" height="4" fill="#000000" stroke="none" pointer-events="none"/><rect x="1578" y="598" width="4" height="4" fill="#000000" stroke="none" pointer-events="none"/><path d="M 1580 676 L 1580 718" fill="#000000" stroke="#000000" stroke-width="4" stroke-linecap="square" stroke-miterlimit="10" pointer-events="none"/><path d="M 1580 602 L 1580 644" fill="#000000" stroke="#000000" stroke-width="4" stroke-linecap="square" stroke-miterlimit="10" pointer-events="none"/><path d="M 1564 674.34 L 1596 674.34 L 1580 646.34 Z" fill="#ffffff" stroke="#000000" stroke-width="4" stroke-linejoin="round" stroke-linecap="square" stroke-miterlimit="10" pointer-events="none"/><path d="M 1564.16 646.36 L 1596.16 646.36" fill="none" stroke="#000000" stroke-width="4" stroke-linecap="round" stroke-miterlimit="10" pointer-events="none"/><rect x="1482" y="626" width="84" height="28" fill-opacity="0" fill="#dae2f2" stroke="none" pointer-events="none"/><g fill="#000000" font-family="Arial,Helvetica" font-weight="bold" text-anchor="middle" font-size="24px"><text x="1524" y="648">1N4007</text></g><rect x="1438" y="778" width="4" height="4" fill="#000000" stroke="none" transform="rotate(90,1440,840)" pointer-events="none"/><rect x="1438" y="898" width="4" height="4" fill="#000000" stroke="none" transform="rotate(90,1440,840)" pointer-events="none"/><path d="M 1440 804 L 1454 810 L 1440 816" fill="none" stroke="#000000" stroke-width="4" stroke-linejoin="round" stroke-linecap="round" stroke-miterlimit="10" transform="rotate(90,1440,840)" pointer-events="none"/><path d="M 1440 816 L 1426 822 L 1440 828" fill="none" stroke="#000000" stroke-width="4" stroke-linejoin="round" stroke-linecap="round" stroke-miterlimit="10" transform="rotate(90,1440,840)" pointer-events="none"/><path d="M 1440 828 L 1454 834 L 1440 840" fill="none" stroke="#000000" stroke-width="4" stroke-linejoin="round" stroke-linecap="round" stroke-miterlimit="10" transform="rotate(90,1440,840)" pointer-events="none"/><path d="M 1440 840 L 1426 846 L 1440 852" fill="none" stroke="#000000" stroke-width="4" stroke-linejoin="round" stroke-linecap="round" stroke-miterlimit="10" transform="rotate(90,1440,840)" pointer-events="none"/><path d="M 1440 852 L 1454 858 L 1440 864" fill="none" stroke="#000000" stroke-width="4" stroke-linejoin="round" stroke-linecap="round" stroke-miterlimit="10" transform="rotate(90,1440,840)" pointer-events="none"/><path d="M 1440 864 L 1426 870 L 1440 876" fill="none" stroke="#000000" stroke-width="4" stroke-linejoin="round" stroke-linecap="round" stroke-miterlimit="10" transform="rotate(90,1440,840)" pointer-events="none"/><path d="M 1440 782 L 1440 802" fill="#000000" stroke="#000000" stroke-width="4" stroke-linecap="square" stroke-miterlimit="10" transform="rotate(90,1440,840)" pointer-events="none"/><path d="M 1440 878 L 1440 898" fill="#000000" stroke="#000000" stroke-width="4" stroke-linecap="square" stroke-miterlimit="10" transform="rotate(90,1440,840)" pointer-events="none"/><rect x="1476" y="768" width="26" height="28" fill-opacity="0" fill="#dae2f2" stroke="none" pointer-events="none"/><g fill="#000000" font-family="Arial,Helvetica" font-weight="bold" text-anchor="middle" font-size="24px"><text x="1489" y="822">1k</text></g><rect x="1498" y="838" width="4" height="4" fill="#000000" stroke="none" pointer-events="none"/><rect x="1578" y="778" width="4" height="4" fill="#000000" stroke="none" pointer-events="none"/><rect x="1578" y="898" width="4" height="4" fill="#000000" stroke="none" pointer-events="none"/><path d="M 1502 840 L 1548 840" fill="none" stroke="#000000" stroke-width="4" stroke-linecap="square" stroke-miterlimit="10" pointer-events="none"/><path d="M 1550 850 L 1580 870" fill="none" stroke="#000000" stroke-width="4" stroke-linejoin="round" stroke-linecap="round" stroke-miterlimit="10" pointer-events="none"/><path d="M 1550 830 L 1580 810" fill="none" stroke="#000000" stroke-width="4" stroke-linejoin="round" stroke-linecap="round" stroke-miterlimit="10" pointer-events="none"/><path d="M 1580 782 L 1580 808" fill="none" stroke="#000000" stroke-width="4" stroke-linecap="square" stroke-miterlimit="10" pointer-events="none"/><path d="M 1580 872 L 1580 898" fill="none" stroke="#000000" stroke-width="4" stroke-linecap="square" stroke-miterlimit="10" pointer-events="none"/><path d="M 1550 806 L 1550 874" fill="none" stroke="#000000" stroke-width="4" stroke-linejoin="round" stroke-linecap="round" stroke-miterlimit="10" pointer-events="none"/><path d="M 1564.32 867.12 L 1579.4 869.22 L 1570.51 856.85 Z" fill="#000000" stroke="#000000" stroke-width="2" stroke-linejoin="round" stroke-linecap="round" stroke-miterlimit="10" pointer-events="none"/><rect x="1422" y="806" width="84" height="28" fill-opacity="0" fill="#dae2f2" stroke="none" pointer-events="none"/><g fill="#000000" font-family="Arial,Helvetica" font-weight="bold" font-size="24px"><text x="1510" y="796">2N2222</text></g><path d="M 1580 600 L 1580 320 L 784 320" fill="none" stroke="#000000" stroke-width="4" stroke-miterlimit="10" pointer-events="none"/><ellipse cx="780" cy="320" rx="4" ry="4" fill="#000000" stroke="#000000" stroke-width="4" pointer-events="none"/><path d="M 1580 720 L 1580 780" fill="none" stroke="#000000" stroke-width="4" stroke-miterlimit="10" pointer-events="none"/><rect x="1578" y="1038" width="4" height="4" fill="#000000" stroke="none" pointer-events="none"/><path d="M 1558 1082 C 1602.04 1082 1602.04 1082 1602.04 1082" fill="none" stroke="#000000" stroke-width="4" stroke-linecap="round" stroke-miterlimit="10" pointer-events="none"/><path d="M 1566 1094 C 1585.14 1094 1594 1094 1594 1094" fill="none" stroke="#000000" stroke-width="4" stroke-linecap="round" stroke-miterlimit="10" pointer-events="none"/><path d="M 1574 1106 C 1580.24 1106 1586 1106 1586 1106" fill="none" stroke="#000000" stroke-width="4" stroke-linecap="round" stroke-miterlimit="10" pointer-events="none"/><path d="M 1580 1042 L 1580 1078" fill="#000000" stroke="#000000" stroke-width="4" stroke-linecap="square" stroke-miterlimit="10" pointer-events="none"/><path d="M 1580 900 L 1580 1040" fill="none" stroke="#000000" stroke-width="4" stroke-miterlimit="10" pointer-events="none"/><path d="M 1760 700 L 1660 700 L 1660 320 L 1584 320" fill="none" stroke="#000000" stroke-width="4" stroke-miterlimit="10" pointer-events="none"/><ellipse cx="1580" cy="320" rx="4" ry="4" fill="#000000" stroke="#000000" stroke-width="4" pointer-events="none"/><path d="M 1760 760 L 1680 760 L 1584 760" fill="none" stroke="#000000" stroke-width="4" stroke-miterlimit="10" pointer-events="none"/><ellipse cx="1580" cy="760" rx="4" ry="4" fill="#000000" stroke="#000000" stroke-width="4" pointer-events="none"/><path d="M 1500 840 L 1500 840" fill="none" stroke="#000000" stroke-width="4" stroke-miterlimit="10" pointer-events="none"/><path d="M 700 960 L 1360 960 L 1360 840 L 1380 840" fill="none" stroke="#000000" stroke-width="4" stroke-miterlimit="10" pointer-events="none"/><path d="M 420 320 L 100 320 L 100 160 L 180 160" fill="none" stroke="#000000" stroke-width="4" stroke-miterlimit="10" pointer-events="none"/><path d="M 1760 640 L 1700 640 L 1700 80 L 100 80 L 100 156" fill="none" stroke="#000000" stroke-width="4" stroke-miterlimit="10" pointer-events="none"/><ellipse cx="100" cy="160" rx="4" ry="4" fill="#000000" stroke="#000000" stroke-width="4" pointer-events="none"/><path d="M 1020 900 L 700 900" fill="none" stroke="#000000" stroke-width="4" stroke-miterlimit="10" pointer-events="none"/><path d="M 1020 600 L 700 600" fill="none" stroke="#000000" stroke-width="4" stroke-miterlimit="10" pointer-events="none"/><path d="M 1020 660 L 700 660" fill="none" stroke="#000000" stroke-width="4" stroke-miterlimit="10" pointer-events="none"/><path d="M 1020 720 L 700 720" fill="none" stroke="#000000" stroke-width="4" stroke-miterlimit="10" pointer-events="none"/><path d="M 1020 780 L 700 780" fill="none" stroke="#000000" stroke-width="4" stroke-miterlimit="10" pointer-events="none"/><path d="M 1020 840 L 700 840" fill="none" stroke="#000000" stroke-width="4" stroke-miterlimit="10" pointer-events="none"/><path d="M 1100 480 L 1020 480 L 1020 324" fill="none" stroke="#000000" stroke-width="4" stroke-miterlimit="10" pointer-events="none"/><ellipse cx="1020" cy="320" rx="4" ry="4" fill="#000000" stroke="#000000" stroke-width="4" pointer-events="none"/><path d="M 1160 480 L 1160 520 L 840 520 L 840 464" fill="none" stroke="#000000" stroke-width="4" stroke-miterlimit="10" pointer-events="none"/><ellipse cx="840" cy="460" rx="4" ry="4" fill="#000000" stroke="#000000" stroke-width="4" pointer-events="none"/><path d="M 1220 480 L 1400 480 L 1400 660 L 1340 660" fill="none" stroke="#000000" stroke-width="4" stroke-miterlimit="10" pointer-events="none"/></g></svg>